<?xml version="1.0" standalone="no"?>
<!DOCTYPE svg PUBLIC "-//W3C//DTD SVG 20010904//EN"
 "http://www.w3.org/TR/2001/REC-SVG-20010904/DTD/svg10.dtd">
<svg version="1.0" xmlns="http://www.w3.org/2000/svg"
 width="500.000000pt" height="500.000000pt" viewBox="0 0 500.000000 500.000000"
 preserveAspectRatio="xMidYMid meet">
<metadata>
Created by potrace 1.14, written by Peter Selinger 2001-2017
</metadata>
<g transform="translate(0.000000,500.000000) scale(0.100000,-0.100000)"
fill="#000000" stroke="none">
<path d="M2370 4644 c-113 -14 -291 -50 -395 -81 -589 -173 -1085 -581 -1195
-983 -24 -91 -27 -229 -5 -315 48 -188 178 -344 317 -381 48 -12 48 -12 48 13
0 13 -23 66 -51 116 -42 74 -53 104 -57 151 -22 271 286 620 749 849 322 159
589 225 935 234 223 6 378 -10 569 -59 208 -54 314 -117 393 -237 67 -100 77
-133 76 -256 0 -96 -3 -118 -27 -174 -65 -154 -160 -258 -352 -386 -250 -167
-605 -322 -868 -380 -78 -17 -247 -18 -274 -2 -9 6 -7 22 8 65 21 61 64 226
101 387 17 77 22 131 23 236 l0 135 -44 89 c-64 130 -203 262 -298 283 -48 11
-103 -3 -103 -25 0 -9 23 -48 51 -87 46 -62 51 -73 41 -96 -5 -14 -42 -97 -80
-185 -88 -200 -117 -294 -235 -785 -137 -563 -159 -694 -161 -945 -1 -200 -1
-200 27 -256 28 -58 133 -167 212 -221 41 -28 168 -57 199 -45 14 6 15 31 10
204 -6 202 5 327 38 443 13 42 18 48 93 87 90 48 251 103 370 129 44 9 148 19
231 21 338 11 588 -63 685 -203 59 -87 50 -259 -21 -396 -131 -253 -428 -487
-775 -610 -72 -26 -253 -63 -262 -54 -10 10 116 174 189 244 127 123 274 222
582 393 163 91 245 149 267 191 10 18 9 18 -10 8 -17 -9 -21 -8 -21 6 0 12 -6
15 -26 10 -22 -6 -24 -5 -15 13 15 26 14 31 -4 31 -9 0 -19 8 -22 18 -4 9 -18
32 -32 49 -26 33 -27 33 -111 33 -163 0 -324 -43 -516 -136 -324 -157 -598
-408 -711 -650 -24 -51 -28 -71 -27 -149 1 -83 4 -97 37 -165 57 -120 136
-198 265 -260 113 -54 163 -63 319 -57 406 17 837 228 1069 525 146 186 194
318 194 533 0 169 -42 309 -132 443 -65 96 -212 243 -338 339 -63 48 -116 91
-117 95 -1 4 55 34 124 67 448 212 629 370 723 630 32 87 33 95 34 260 1 147
-2 179 -20 240 -102 335 -273 604 -485 767 -133 101 -303 172 -514 215 -106
22 -151 25 -380 28 -143 2 -276 1 -295 -1z m-540 -477 c-224 -113 -425 -241
-565 -362 -109 -94 -108 -93 -80 -44 67 121 323 290 635 420 63 27 120 49 125
49 6 0 -46 -29 -115 -63z m1901 -1226 c-23 -42 -259 -204 -408 -279 -112 -57
-350 -148 -360 -139 -2 2 84 46 189 97 199 95 363 188 503 284 44 30 81 55 83
55 1 1 -2 -8 -7 -18z m-1011 -1456 c0 -2 -57 -50 -127 -107 -71 -56 -179 -154
-241 -218 -77 -78 -110 -105 -101 -85 48 109 213 266 394 373 74 44 75 45 75
37z m768 -351 c-81 -114 -243 -260 -313 -281 -19 -6 -35 -10 -35 -8 0 1 42 38
92 81 51 44 134 118 185 167 50 48 95 87 98 87 3 0 -9 -21 -27 -46z"/>
</g>
</svg>
